<svg xmlns="http://www.w3.org/2000/svg" width="187.5" viewBox="0 0 187.5 60" height="60" version="1.0"><g fill="#FFF"><g><g><path d="M 11.300781 -15.234375 C 8.851562 -15.234375 6.710938 -14.488281 5.203125 -13.332031 C 4.808594 -13.988281 4.632812 -14.597656 4.566406 -14.863281 C 4.414062 -15.167969 3.234375 -14.90625 3.101562 -14.316406 C 3.191406 -13.703125 3.300781 -13.027344 3.867188 -12.042969 C 2.292969 -10.164062 1.484375 -7.714844 1.507812 -5.703125 C 1.574219 -2.777344 3.320312 -0.414062 6.382812 -0.523438 C 7.738281 -0.566406 8.828125 -0.984375 9.441406 -1.617188 C 9.308594 -1.246094 8.980469 0.152344 8.894531 0.480469 C 6.578125 0.699219 3.933594 1.441406 3.585938 3.714844 C 3.277344 5.683594 4.875 6.511719 6.929688 6.511719 C 10.492188 6.511719 11.582031 4.109375 12.238281 1.75 C 14.269531 0.984375 15.800781 -1.113281 17.265625 -3.628906 C 17.289062 -3.824219 16.480469 -4.480469 16.238281 -4.21875 C 15.144531 -2.339844 14.117188 -0.941406 12.828125 -0.152344 C 13.289062 -1.683594 13.921875 -4.109375 14.402344 -6.121094 C 14.054688 -7.082031 11.300781 -6.929688 10.644531 -6.46875 C 9.703125 -3.695312 8.546875 -2.886719 7.496094 -2.839844 C 6.292969 -2.796875 5.574219 -4.261719 5.574219 -5.855469 C 5.574219 -6.992188 5.8125 -8.195312 6.230469 -9.199219 C 9.070312 -7.257812 13.835938 -6.949219 15.453125 -10.335938 C 16.542969 -12.609375 15.015625 -15.234375 11.300781 -15.234375 Z M 10.621094 -12.894531 C 11.496094 -12.871094 12 -12.414062 11.890625 -11.824219 C 11.582031 -10.25 9.113281 -10.007812 7.234375 -11.035156 C 8.042969 -12.128906 9.265625 -12.917969 10.621094 -12.894531 Z M 6.839844 3.257812 C 7.210938 2.558594 8.152344 2.25 8.566406 2.140625 C 8.347656 2.929688 8.128906 3.824219 7.648438 4.128906 C 6.992188 4.546875 6.46875 3.957031 6.839844 3.257812 Z M 6.839844 3.257812" transform="translate(47.59 27.83)"/></g></g></g><g fill="#FFF"><g><g><path d="M 7.148438 -15.234375 C 2.929688 -15.1875 0.960938 -11.015625 0.414062 -7.300781 C -0.152344 -3.453125 0.589844 0.175781 4.566406 0.21875 C 7.910156 0.261719 9.855469 -1.355469 11.167969 -3.628906 C 11.253906 -3.847656 10.335938 -4.503906 10.164062 -4.238281 C 9.136719 -2.535156 7.453125 -1.726562 6.054688 -1.75 C 4.371094 -1.769531 3.757812 -3.101562 3.976562 -4.894531 C 7.605469 -5.726562 9.988281 -8.28125 10.335938 -10.90625 C 10.6875 -13.550781 9.417969 -15.253906 7.148438 -15.234375 Z M 6.949219 -12.675781 C 7.519531 -12.699219 7.363281 -11.253906 6.929688 -10.140625 C 6.445312 -8.894531 5.398438 -7.429688 4.414062 -7.167969 C 4.632812 -7.976562 5.003906 -9.355469 5.421875 -10.425781 C 5.835938 -11.519531 6.445312 -12.652344 6.949219 -12.675781 Z M 6.949219 -12.675781" transform="translate(63.58 27.83)"/></g></g></g><g fill="#FFF"><g><g><path d="M 6.492188 -9.441406 C 3.738281 -9.527344 1.09375 -8.21875 0.304688 -4.894531 C -0.523438 -1.355469 1.574219 0.21875 4.238281 0.21875 C 5.726562 0.21875 7.191406 -0.152344 8.347656 -1.003906 C 9.878906 -0.917969 11.867188 -0.722656 13.484375 -3.628906 C 13.59375 -3.824219 12.652344 -4.503906 12.480469 -4.238281 C 11.714844 -3.058594 10.707031 -2.183594 9.617188 -2.316406 C 11.714844 -5.703125 10.335938 -9.332031 6.492188 -9.441406 Z M 5.988281 -7.082031 C 6.710938 -7.058594 6.730469 -5.59375 6.316406 -3.957031 C 5.53125 -3.910156 5.113281 -2.753906 5.59375 -2.382812 C 5.484375 -2.273438 5.15625 -2.097656 4.894531 -2.097656 C 4.085938 -2.097656 4.019531 -3.78125 4.371094 -5.027344 C 4.765625 -6.445312 5.53125 -7.082031 5.988281 -7.082031 Z M 5.988281 -7.082031" transform="translate(73.497 27.83)"/></g></g></g><g fill="#FFF"><g><g><path d="M 1.003906 -3.210938 C 1.769531 -4.394531 2.601562 -6.097656 3.039062 -7.496094 C 3.5625 -7.234375 3.890625 -6.863281 3.476562 -6.140625 C 1.289062 -2.359375 2.054688 0.175781 5.222656 0.242188 C 9.027344 0.328125 10.445312 -1.988281 11.472656 -3.628906 C 11.582031 -3.824219 10.621094 -4.503906 10.445312 -4.238281 C 9.375 -2.359375 7.757812 -1.59375 6.839844 -1.878906 C 6.140625 -2.097656 6.554688 -3.78125 7.605469 -5.332031 C 8.894531 -7.234375 6.578125 -8.523438 4.960938 -9.855469 C 5.421875 -13.679688 -0.304688 -11.757812 2.03125 -8.238281 C 1.464844 -6.382812 0.699219 -4.984375 -0.0429688 -3.757812 C -0.261719 -3.34375 0.765625 -2.796875 1.003906 -3.210938 Z M 1.003906 -3.210938" transform="translate(85.707 27.83)"/></g></g></g><g fill="#FFF"><g><g><path d="M 4.085938 -10.644531 C 5.59375 -10.644531 6.46875 -11.582031 6.664062 -12.699219 C 6.839844 -13.769531 6.183594 -14.707031 4.851562 -14.753906 C 3.519531 -14.773438 2.601562 -13.835938 2.382812 -12.699219 C 2.164062 -11.625 2.949219 -10.644531 4.085938 -10.644531 Z M 2.753906 0.21875 C 5.355469 0.109375 6.992188 -1.835938 8.066406 -3.628906 C 8.152344 -3.824219 7.277344 -4.480469 7.058594 -4.238281 C 6.121094 -2.777344 5.3125 -2.183594 4.613281 -2.183594 C 4.175781 -2.183594 4.109375 -2.511719 4.238281 -3.320312 C 4.394531 -4.304688 5.027344 -6.425781 5.574219 -8.589844 C 5.027344 -9.464844 2.25 -9.59375 1.574219 -9.089844 C 1.09375 -7.386719 0.4375 -5.027344 -0.0234375 -2.949219 C -0.4375 -1.113281 0.0664062 0.328125 2.753906 0.21875 Z M 2.753906 0.21875" transform="translate(95.908 27.83)"/></g></g></g><g fill="#FFF"><g><g><path d="M 8.960938 -9.441406 C 7.519531 -9.464844 6.011719 -8.457031 5.246094 -7.910156 L 5.464844 -8.632812 C 4.960938 -9.441406 2.273438 -9.574219 1.464844 -9.089844 C 0.742188 -6.402344 -0.0429688 -3.257812 -0.808594 -0.371094 C -1.050781 0.503906 3.210938 0.414062 3.386719 -0.285156 C 3.890625 -2.316406 4.304688 -4.152344 4.875 -6.207031 C 5.070312 -6.359375 5.550781 -6.664062 5.945312 -6.664062 C 6.316406 -6.664062 6.359375 -6.445312 6.230469 -5.945312 C 6.164062 -5.660156 5.683594 -3.78125 5.507812 -3.125 C 5.003906 -1.203125 5.484375 0.304688 8.109375 0.21875 C 10.796875 0.132812 12.542969 -2.121094 13.417969 -3.628906 C 13.507812 -3.824219 12.589844 -4.546875 12.390625 -4.21875 C 11.757812 -3.148438 10.796875 -2.207031 10.074219 -2.183594 C 9.769531 -2.183594 9.527344 -2.601562 9.703125 -3.410156 C 9.898438 -4.394531 10.402344 -5.769531 10.601562 -6.578125 C 11.015625 -8.28125 10.492188 -9.417969 8.960938 -9.441406 Z M 8.960938 -9.441406" transform="translate(102.702 27.83)"/></g></g></g><g fill="#FFF"><g><g><path d="M 12.304688 -4.21875 C 11.671875 -3.148438 10.707031 -2.207031 9.988281 -2.183594 C 9.683594 -2.183594 9.441406 -2.601562 9.617188 -3.410156 C 9.8125 -4.394531 10.316406 -5.769531 10.511719 -6.578125 C 10.925781 -8.28125 10.402344 -9.417969 8.875 -9.441406 C 7.519531 -9.464844 6.207031 -8.589844 5.398438 -8.019531 C 5.945312 -10.097656 6.492188 -12.171875 7.015625 -14.25 C 6.820312 -15.125 3.453125 -15.253906 2.949219 -14.730469 C 2.164062 -11.976562 0.285156 -4.304688 -0.808594 -0.304688 C -0.742188 0.152344 0.457031 0.328125 1.59375 0.242188 C 2.425781 0.195312 3.234375 0.0429688 3.386719 -0.242188 L 4.9375 -6.25 C 5.15625 -6.425781 5.507812 -6.644531 5.855469 -6.664062 C 6.230469 -6.6875 6.273438 -6.445312 6.140625 -5.945312 C 6.074219 -5.660156 5.59375 -3.78125 5.421875 -3.125 C 4.917969 -1.203125 5.398438 0.304688 8.019531 0.21875 C 10.707031 0.132812 12.457031 -2.121094 13.332031 -3.628906 C 13.417969 -3.824219 12.5 -4.546875 12.304688 -4.21875 Z M 12.304688 -4.21875" transform="translate(114.847 27.83)"/></g></g></g><g fill="#FFF"><g><g><path d="M 6.316406 -9.355469 C 3.890625 -9.046875 0.414062 -7.058594 0.0664062 -3.277344 C -0.21875 -0.109375 1.921875 0.21875 3.125 0.21875 C 5.246094 0.195312 6.183594 -1.160156 6.796875 -2.359375 C 6.46875 -0.808594 6.949219 0.175781 8.390625 0.21875 C 10.882812 0.285156 12.808594 -1.136719 14.269531 -3.628906 C 14.378906 -3.804688 13.441406 -4.546875 13.242188 -4.21875 C 12.589844 -3.082031 11.539062 -2.207031 10.554688 -2.183594 C 10.140625 -2.183594 9.792969 -2.578125 10.140625 -3.890625 C 10.335938 -4.523438 10.425781 -4.785156 10.578125 -5.179688 C 10.183594 -5.703125 8.019531 -6.292969 7.234375 -5.855469 C 6.839844 -4.785156 5.769531 -2.273438 4.851562 -2.183594 C 4.195312 -2.121094 4.21875 -3.058594 4.589844 -4.304688 C 5.046875 -5.8125 6.230469 -6.949219 7.605469 -6.949219 C 8.785156 -6.972656 10.054688 -6.664062 10.90625 -5.964844 C 11.363281 -5.902344 12.566406 -7.101562 12.371094 -7.847656 C 10.972656 -9.289062 8.238281 -9.59375 6.316406 -9.355469 Z M 6.316406 -9.355469" transform="translate(126.904 27.83)"/></g></g></g><g fill="#FFF"><g><g><path d="M 22.902344 1.726562 C 24.804688 1.96875 26.09375 -0.4375 25.503906 -1.09375 C 24.019531 -1.921875 25.546875 -5.484375 26.378906 -8.851562 C 26.816406 -10.621094 28.410156 -15.277344 24.785156 -15.234375 C 22.683594 -15.210938 20.914062 -13.617188 19.824219 -12.480469 C 19.910156 -13.964844 19.253906 -15.234375 17.769531 -15.234375 C 15.5625 -15.234375 13.703125 -13.855469 12.589844 -12.433594 C 12.785156 -13.113281 13.003906 -13.855469 13.222656 -14.535156 C 12.851562 -15.144531 10.535156 -15.34375 9.746094 -14.882812 C 7.210938 -12.195312 1.878906 -13.550781 1.160156 -10.140625 C 0.65625 -7.78125 2.929688 -6.664062 4.894531 -7.101562 C 5.484375 -7.257812 5.921875 -8.632812 5.617188 -8.808594 C 5.179688 -9.113281 5.09375 -9.527344 5.246094 -10.097656 C 5.617188 -11.453125 8 -11.363281 8.808594 -12.328125 C 7.738281 -8.414062 6.621094 -4.21875 5.617188 -0.304688 C 6.207031 0.480469 8.742188 0.394531 9.59375 -0.21875 C 9.769531 -0.742188 10.25 -2.6875 11.144531 -5.988281 C 11.890625 -8.699219 13.855469 -12.457031 15.496094 -12.5 C 16.152344 -12.523438 15.625 -10.46875 15.277344 -9.246094 C 14.007812 -4.71875 13.265625 -1.878906 12.871094 -0.285156 C 13.570312 0.457031 16.414062 0.261719 16.914062 -0.21875 C 17.070312 -0.722656 17.570312 -3.519531 18.90625 -7.605469 C 19.757812 -10.226562 21.636719 -12.5 22.683594 -12.5 C 23.472656 -12.5 22.859375 -10.753906 22.511719 -9.59375 C 20.914062 -4.371094 19.515625 1.113281 22.902344 1.726562 Z M 22.902344 1.726562" transform="translate(26.555 45.08)"/></g></g></g><g fill="#FFF"><g><g><path d="M 8.5 -14.863281 C 7.015625 -14.863281 5.878906 -14.03125 5.703125 -12.808594 C 5.464844 -11.429688 6.425781 -10.511719 8.042969 -10.511719 C 9.527344 -10.511719 10.644531 -11.363281 10.816406 -12.566406 C 11.058594 -13.945312 10.097656 -14.882812 8.5 -14.863281 Z M 8.390625 -13.351562 C 9.375 -13.351562 8.980469 -12.019531 8.128906 -12.019531 C 7.148438 -12.019531 7.5625 -13.351562 8.390625 -13.351562 Z M 6.316406 -9.355469 C 3.890625 -9.046875 0.414062 -7.058594 0.0664062 -3.277344 C -0.21875 -0.109375 1.921875 0.21875 3.125 0.21875 C 5.246094 0.195312 6.183594 -1.160156 6.796875 -2.359375 C 6.46875 -0.808594 6.949219 0.175781 8.390625 0.21875 C 10.882812 0.285156 12.808594 -1.136719 14.269531 -3.628906 C 14.378906 -3.804688 13.441406 -4.546875 13.242188 -4.21875 C 12.589844 -3.082031 11.539062 -2.207031 10.554688 -2.183594 C 10.140625 -2.183594 9.792969 -2.578125 10.140625 -3.890625 C 10.335938 -4.523438 10.425781 -4.785156 10.578125 -5.179688 C 10.183594 -5.703125 8.019531 -6.292969 7.234375 -5.855469 C 6.839844 -4.785156 5.769531 -2.273438 4.851562 -2.183594 C 4.195312 -2.121094 4.21875 -3.058594 4.589844 -4.304688 C 5.046875 -5.8125 6.230469 -6.949219 7.605469 -6.949219 C 8.785156 -6.972656 10.054688 -6.664062 10.90625 -5.964844 C 11.363281 -5.902344 12.566406 -7.101562 12.371094 -7.847656 C 10.972656 -9.289062 8.238281 -9.59375 6.316406 -9.355469 Z M 6.316406 -9.355469" transform="translate(54.078 45.08)"/></g></g></g><g fill="#FFF"><g><g><path d="M 1.269531 -1.703125 C 1.59375 -0.304688 3.496094 0.21875 5.027344 0.21875 C 6.339844 0.21875 7.628906 -0.152344 8.414062 -0.960938 C 10.03125 -1.027344 11.496094 -1.507812 12.675781 -3.628906 C 12.785156 -3.804688 11.84375 -4.503906 11.671875 -4.238281 C 10.972656 -3.039062 9.945312 -2.402344 9.089844 -2.316406 C 9.332031 -4.085938 9.027344 -5.792969 8.28125 -7.957031 C 9.945312 -10.621094 6.074219 -11.386719 3.867188 -9.070312 C 2.207031 -7.320312 0.632812 -4.894531 -0.0429688 -3.757812 C -0.285156 -3.34375 0.765625 -2.796875 1.003906 -3.191406 C 1.59375 -4.175781 3.234375 -6.882812 4.347656 -7.78125 C 4.699219 -6.601562 4.765625 -5.550781 4.960938 -3.847656 C 4.285156 -3.628906 4.066406 -2.449219 4.675781 -2.097656 C 4.21875 -1.8125 3.519531 -2.03125 3.234375 -2.777344 C 2.558594 -3.191406 1.222656 -2.402344 1.269531 -1.703125 Z M 1.269531 -1.703125" transform="translate(67.075 45.08)"/></g></g></g><g fill="#FFF"><g><g><path d="M 6.316406 -9.355469 C 3.890625 -9.046875 0.414062 -7.058594 0.0664062 -3.277344 C -0.21875 -0.109375 1.921875 0.21875 3.125 0.21875 C 5.246094 0.195312 6.183594 -1.160156 6.796875 -2.359375 C 6.46875 -0.808594 6.949219 0.175781 8.390625 0.21875 C 10.882812 0.285156 12.808594 -1.136719 14.269531 -3.628906 C 14.378906 -3.804688 13.441406 -4.546875 13.242188 -4.21875 C 12.589844 -3.082031 11.539062 -2.207031 10.554688 -2.183594 C 10.140625 -2.183594 9.792969 -2.578125 10.140625 -3.890625 C 10.335938 -4.523438 10.425781 -4.785156 10.578125 -5.179688 C 10.183594 -5.703125 8.019531 -6.292969 7.234375 -5.855469 C 6.839844 -4.785156 5.769531 -2.273438 4.851562 -2.183594 C 4.195312 -2.121094 4.21875 -3.058594 4.589844 -4.304688 C 5.046875 -5.8125 6.230469 -6.949219 7.605469 -6.949219 C 8.785156 -6.972656 10.054688 -6.664062 10.90625 -5.964844 C 11.363281 -5.902344 12.566406 -7.101562 12.371094 -7.847656 C 10.972656 -9.289062 8.238281 -9.59375 6.316406 -9.355469 Z M 6.316406 -9.355469" transform="translate(78.477 45.08)"/></g></g></g><g fill="#FFF"><g><g><path d="M 4.457031 0.21875 C 6.054688 0.21875 7.300781 -0.195312 8.390625 -0.941406 C 9.964844 -0.832031 12.171875 -0.785156 13.746094 -3.628906 C 13.855469 -3.804688 12.917969 -4.546875 12.71875 -4.21875 C 11.867188 -2.753906 10.863281 -2.25 9.769531 -2.273438 C 11.582031 -4.347656 11.5625 -8.195312 9.003906 -9.070312 C 7.910156 -9.441406 6.511719 -9.15625 5.550781 -8.632812 C 6.121094 -10.992188 6.492188 -12.371094 6.992188 -14.269531 C 6.796875 -14.992188 4.019531 -15.34375 2.886719 -14.753906 C 2.164062 -12.085938 1.09375 -8.699219 0.371094 -5.09375 C -0.503906 -0.699219 2.011719 0.21875 4.457031 0.21875 Z M 5.070312 -2.078125 C 3.738281 -2.078125 4.371094 -4.71875 5.027344 -6.511719 C 5.464844 -6.90625 5.945312 -7.125 6.339844 -7.082031 C 7.191406 -6.992188 6.839844 -5.15625 6.402344 -4.019531 C 5.617188 -4.019531 5.222656 -2.820312 5.746094 -2.402344 C 5.574219 -2.230469 5.375 -2.078125 5.070312 -2.078125 Z M 5.070312 -2.078125" transform="translate(91.474 45.08)"/></g></g></g><g fill="#FFF"><g><g><path d="M 6.316406 -9.355469 C 3.890625 -9.046875 0.414062 -7.058594 0.0664062 -3.277344 C -0.21875 -0.109375 1.921875 0.21875 3.125 0.21875 C 5.246094 0.195312 6.183594 -1.160156 6.796875 -2.359375 C 6.46875 -0.808594 6.949219 0.175781 8.390625 0.21875 C 10.882812 0.285156 12.808594 -1.136719 14.269531 -3.628906 C 14.378906 -3.804688 13.441406 -4.546875 13.242188 -4.21875 C 12.589844 -3.082031 11.539062 -2.207031 10.554688 -2.183594 C 10.140625 -2.183594 9.792969 -2.578125 10.140625 -3.890625 C 10.335938 -4.523438 10.425781 -4.785156 10.578125 -5.179688 C 10.183594 -5.703125 8.019531 -6.292969 7.234375 -5.855469 C 6.839844 -4.785156 5.769531 -2.273438 4.851562 -2.183594 C 4.195312 -2.121094 4.21875 -3.058594 4.589844 -4.304688 C 5.046875 -5.8125 6.230469 -6.949219 7.605469 -6.949219 C 8.785156 -6.972656 10.054688 -6.664062 10.90625 -5.964844 C 11.363281 -5.902344 12.566406 -7.101562 12.371094 -7.847656 C 10.972656 -9.289062 8.238281 -9.59375 6.316406 -9.355469 Z M 6.316406 -9.355469" transform="translate(103.947 45.08)"/></g></g></g><g fill="#FFF"><g><g><path d="M 6.339844 -9.398438 C 2.777344 -9.574219 0.328125 -7.039062 0.242188 -4.066406 C 0.152344 -1.050781 2.601562 0.242188 5.375 0.21875 C 7.671875 0.195312 9.855469 -0.394531 11.867188 -3.628906 C 11.976562 -3.824219 11.058594 -4.503906 10.863281 -4.238281 C 9.988281 -2.753906 8.371094 -1.878906 7.167969 -1.75 C 5.441406 -1.550781 4.195312 -2.359375 4.457031 -4.394531 C 4.699219 -6.339844 5.421875 -7.148438 5.855469 -7.148438 C 6.46875 -7.148438 5.878906 -5.964844 5.769531 -5.574219 C 6.183594 -4.71875 8.414062 -4.765625 9.289062 -5.769531 C 9.703125 -7.148438 9.265625 -9.246094 6.339844 -9.398438 Z M 6.339844 -9.398438" transform="translate(116.944 45.08)"/></g></g></g><g fill="#FFF"><g><g><path d="M 12.371094 -4.238281 C 11.320312 -2.558594 10.445312 -2.054688 9.289062 -2.097656 C 8.566406 -2.121094 8.304688 -2.796875 8.261719 -4.261719 C 11.167969 -4.765625 11.976562 -9.265625 9.136719 -9.441406 C 7.628906 -9.527344 6.554688 -8.785156 5.375 -7.910156 C 6.074219 -10.621094 6.710938 -13.15625 7.039062 -14.25 C 6.839844 -15.125 3.429688 -15.253906 2.929688 -14.730469 C 2.140625 -11.976562 0.261719 -4.304688 -0.832031 -0.304688 C -0.699219 0.503906 2.992188 0.394531 3.410156 -0.261719 C 3.890625 -2.230469 4.394531 -4.109375 4.785156 -5.660156 C 5.113281 -6.097656 5.746094 -6.644531 6.316406 -6.664062 C 7.277344 -6.710938 7.082031 -5.136719 5.113281 -4.546875 C 4.613281 -1.203125 5.726562 0.261719 7.910156 0.21875 C 9.726562 0.175781 11.734375 -0.785156 13.398438 -3.628906 C 13.484375 -3.824219 12.589844 -4.503906 12.371094 -4.238281 Z M 12.371094 -4.238281" transform="translate(127.538 45.08)"/></g></g></g><g fill="#FFF"><g><g><path d="M 6.316406 -9.355469 C 3.890625 -9.046875 0.414062 -7.058594 0.0664062 -3.277344 C -0.21875 -0.109375 1.921875 0.21875 3.125 0.21875 C 5.246094 0.195312 6.183594 -1.160156 6.796875 -2.359375 C 6.46875 -0.808594 6.949219 0.175781 8.390625 0.21875 C 10.882812 0.285156 12.808594 -1.136719 14.269531 -3.628906 C 14.378906 -3.804688 13.441406 -4.546875 13.242188 -4.21875 C 12.589844 -3.082031 11.539062 -2.207031 10.554688 -2.183594 C 10.140625 -2.183594 9.792969 -2.578125 10.140625 -3.890625 C 10.335938 -4.523438 10.425781 -4.785156 10.578125 -5.179688 C 10.183594 -5.703125 8.019531 -6.292969 7.234375 -5.855469 C 6.839844 -4.785156 5.769531 -2.273438 4.851562 -2.183594 C 4.195312 -2.121094 4.21875 -3.058594 4.589844 -4.304688 C 5.046875 -5.8125 6.230469 -6.949219 7.605469 -6.949219 C 8.785156 -6.972656 10.054688 -6.664062 10.90625 -5.964844 C 11.363281 -5.902344 12.566406 -7.101562 12.371094 -7.847656 C 10.972656 -9.289062 8.238281 -9.59375 6.316406 -9.355469 Z M 6.316406 -9.355469" transform="translate(139.662 45.08)"/></g></g></g></svg>